<svg width="109" height="19" viewBox="0 0 109 19" fill="none" xmlns="http://www.w3.org/2000/svg">
<g clip-path="url(#clip0)">
<path d="M7.03908 3.72203C7.45145 3.22681 8.09611 2.99238 8.92086 2.99238C9.23145 2.99238 9.64382 3.04506 9.9257 3.12145L10.4451 0.234438C9.74822 0.0526826 9.12966 0 8.4589 0C6.7572 0 5.44178 0.62429 4.56483 1.48302C3.68788 2.34174 3.22331 3.56398 3.22331 5.5949V6.11646H0V8.97976H3.22331V18.7392H6.5745V8.97976H10.4425V6.11646H6.5745V5.72661C6.5745 4.55442 6.7572 4.08554 7.03908 3.72203Z" fill="white"/>
<path d="M15.2135 7.39155V6.11663H11.9902V18.7394H15.3414V10.8001C15.7538 10.0441 16.9152 8.9773 18.3847 8.9773C18.8753 8.9773 19.3634 9.02998 19.5957 9.10637L19.9819 5.95595C19.6218 5.90327 19.3373 5.85059 18.8466 5.85059C17.3276 5.85585 15.96 6.4538 15.2135 7.39155Z" fill="white"/>
<path d="M29.9098 7.13039C28.9311 6.32435 27.6652 5.85547 26.248 5.85547C22.8446 5.85547 20.1094 8.71877 20.1094 12.4408C20.1094 14.1583 20.7279 15.7203 21.7093 16.8662C22.8185 18.1674 24.5724 18.9998 26.4281 18.9998C27.6913 18.9998 28.8789 18.61 29.9098 17.7249V18.739H33.1331V6.11625H29.9098V7.13039ZM29.7819 14.3137C29.1372 15.2514 28.028 15.8757 26.7648 15.8757C24.883 15.8757 23.4632 14.419 23.4632 12.4408C23.4632 10.618 24.7264 8.97955 26.6865 8.97955C27.9758 8.97955 29.085 9.60384 29.7819 10.5416V14.3137Z" fill="white"/>
<path d="M42.5531 5.85547C41.1594 5.85547 39.9745 6.35069 39.0192 7.13039V6.11625H35.7959V18.739H39.1497V10.5416C39.6143 9.89096 40.7731 8.97955 42.1929 8.97955C42.9655 8.97955 43.6362 9.24033 44.0747 9.68286C44.5393 10.1517 44.8238 10.8024 44.8238 12.0509V18.739H48.175V12.3117C48.175 10.1517 47.7104 8.87682 46.8856 7.88639C45.8547 6.63517 44.2809 5.85547 42.5531 5.85547Z" fill="white"/>
<path d="M56.8709 15.876C54.8325 15.876 53.4153 14.4193 53.4153 12.4411C53.4153 10.5155 54.8586 8.97984 56.7926 8.97984C58.0036 8.97984 59.0111 9.60413 59.6818 10.4892L62.0543 8.3819C60.8929 6.87254 58.9589 5.8584 56.7926 5.8584C52.9768 5.8584 50.0615 8.77438 50.0615 12.4437C50.0615 16.0867 52.8986 19.0027 56.7665 19.0027C59.1129 19.0027 60.9712 18.144 62.4406 16.1658L59.8619 14.2139C59.3217 15.0436 58.2385 15.876 56.8709 15.876Z" fill="white"/>
<path d="M69.2134 5.85547C65.4994 5.85547 63.127 8.92687 63.127 12.4408C63.127 16.3973 65.9379 18.9998 69.678 18.9998C71.612 18.9998 73.5981 18.1938 74.8092 16.7344L72.9013 14.8089C72.3088 15.4595 71.1735 16.2656 69.7563 16.2656C67.9763 16.2656 66.5591 15.0433 66.379 13.2732H75.0441C75.0963 12.9861 75.1224 12.6489 75.1224 12.3091C75.1197 8.7978 72.669 5.85547 69.2134 5.85547ZM66.5304 10.7997C66.6843 9.65389 67.8197 8.58707 69.2134 8.58707C70.581 8.58707 71.5859 9.68023 71.6903 10.7997H66.5304Z" fill="white"/>
<path d="M81.519 8.97754C79.632 8.97754 78.0869 10.5369 78.0869 12.4414C78.0869 14.3459 79.632 15.9053 81.519 15.9053C83.4061 15.9053 84.9512 14.3459 84.9512 12.4414C84.9512 10.5369 83.4061 8.97754 81.519 8.97754Z" fill="white"/>
<path d="M105.518 6.11647L102.089 13.8213L98.6591 6.11647H92.4761V2.60254H89.1249V6.11647H85.8154V8.97977H89.1249V13.4051C89.1249 15.2016 89.4093 16.3211 90.054 17.1798C90.9049 18.3257 92.3743 19.0026 94.3866 19.0026C95.0312 19.0026 96.0361 18.8973 96.4745 18.7419L95.9578 15.8786C95.7255 15.9312 95.0808 16.0076 94.5901 16.0076C93.7654 16.0076 93.2225 15.7732 92.8884 15.3833C92.6039 15.0462 92.4761 14.5773 92.4761 13.795V8.97977H96.4824L100.927 18.7392H103.247L108.997 6.11647H105.518Z" fill="white"/>
</g>
<defs>
<clipPath id="clip0">
<rect width="109" height="19" fill="white"/>
</clipPath>
</defs>
</svg>
