<svg width="109" height="102" viewBox="0 0 109 102" fill="none" xmlns="http://www.w3.org/2000/svg">
<path d="M54 0L17 56V59.5C17 64.2 20.8 68 25.5 68H43L81.1 9.1C83.6 5.2 80.8 0 76.1 0H54Z" fill="white"/>
<path d="M68 34L46 68H77.3C84.1 68 88 60.2 83.8 54.8L68 34Z" fill="white"/>
<path d="M7.1 92.6998L4.6 96.0998V101.8H0V78.7998H4.7V88.7998L11.8 78.7998H17.2L10.3 88.2998L17.6 101.8H12L7.1 92.6998Z" fill="white"/>
<path d="M35 92.9C35 98.4 30.9 102 26.3 102C21.6 102 17.5 98.4 17.5 92.9C17.5 87.4 21.6 83.9 26.3 83.9C30.9 83.8 35 87.4 35 92.9ZM23.1 92.9C23.1 95.7 24.4 97.5 26.3 97.5C28.2 97.5 29.5 95.7 29.5 92.9C29.5 90.2 28.2 88.3 26.3 88.3C24.4 88.3 23.1 90.2 23.1 92.9Z" fill="white"/>
<path d="M51 90.5997V101.8H46.5V92.1997C46.5 90.0997 45.5 88.7997 44 88.7997C42.3 88.7997 41.3 90.2997 41.1 92.3997V101.8H36.5V83.9997H41V86.8997C42 84.7997 43.6 83.7997 45.7 83.6997C48.9 83.7997 51 86.3997 51 90.5997Z" fill="white"/>
<path d="M69.7998 92.9999C69.7998 98.3999 67.1998 102 63.1998 102C61.3998 102 59.8998 101.1 58.8998 99.3999V101.8H54.2998V77.3999H58.8998V86.3999C59.8998 84.7999 61.3998 83.8999 63.0998 83.8999C67.0998 83.7999 69.7998 87.4999 69.7998 92.9999ZM65.1998 92.7999C65.1998 90.0999 63.8998 88.1999 61.9998 88.1999C60.1998 88.1999 58.8998 90.0999 58.8998 92.7999C58.8998 95.5999 60.1998 97.3999 61.9998 97.3999C63.8998 97.3999 65.1998 95.4999 65.1998 92.7999Z" fill="white"/>
<path d="M72.2998 101.8V84H76.7998V101.7H72.2998V101.8Z" fill="white"/>
<path d="M95 90.5997V101.8H90.5V92.1997C90.5 90.0997 89.5 88.7997 88 88.7997C86.3 88.7997 85.3 90.2997 85.1 92.3997V101.8H80.5V83.9997H85V86.8997C86 84.7997 87.6 83.7997 89.7 83.6997C92.9 83.7997 95 86.3997 95 90.5997Z" fill="white"/>
<path d="M98.2002 101.8V84H102.7V101.7H98.2002V101.8Z" fill="white"/>
<path d="M109 80.3002C109 81.7002 107.9 82.9002 106.4 82.9002C104.9 82.9002 103.8 81.7002 103.8 80.3002C103.8 78.9002 104.9 77.7002 106.4 77.7002C107.9 77.7002 109 78.9002 109 80.3002ZM108.4 80.3002C108.4 79.2002 107.5 78.3002 106.4 78.3002C105.3 78.3002 104.4 79.2002 104.4 80.3002C104.4 81.4002 105.3 82.3002 106.4 82.3002C107.6 82.3002 108.4 81.4002 108.4 80.3002ZM107.1 80.6002L107.6 81.4002H106.9L106.5 80.7002H106V81.4002H105.4V79.0002H106.5C107.2 79.0002 107.5 79.3002 107.5 79.9002C107.5 80.2002 107.4 80.5002 107.1 80.6002ZM106.5 80.3002C106.8 80.3002 106.9 80.1002 106.9 79.9002C106.9 79.7002 106.7 79.5002 106.5 79.5002H106V80.3002H106.5V80.3002Z" fill="white"/>
<path d="M17 51L51 0H24.4C20.3 0 17 3.3 17 7.4V51Z" fill="white"/>
<path d="M74.5998 82.2001C75.8701 82.2001 76.8998 81.1704 76.8998 79.9001C76.8998 78.6298 75.8701 77.6001 74.5998 77.6001C73.3295 77.6001 72.2998 78.6298 72.2998 79.9001C72.2998 81.1704 73.3295 82.2001 74.5998 82.2001Z" fill="white"/>
<path d="M100.5 82.2001C101.77 82.2001 102.8 81.1704 102.8 79.9001C102.8 78.6298 101.77 77.6001 100.5 77.6001C99.2299 77.6001 98.2002 78.6298 98.2002 79.9001C98.2002 81.1704 99.2299 82.2001 100.5 82.2001Z" fill="white"/>
</svg>
