<svg width="150" height="150" viewBox="0 0 150 150" fill="none" xmlns="http://www.w3.org/2000/svg">
<path d="M45.6155 72.0069C45.6155 75.9005 47.6592 78.6262 50.9688 78.6262C54.23 78.6262 56.2738 75.9005 56.2738 72.0069C56.2738 68.1132 54.23 65.4851 50.9688 65.4851C47.6592 65.4851 45.6155 68.1132 45.6155 72.0069ZM60.5568 62.6135C62.9902 65.0954 64.2071 68.2107 64.2071 72.0069C64.2071 75.8521 62.9902 78.9669 60.5568 81.4492C58.0749 83.9316 54.9111 85.1479 50.9685 85.1479C47.0264 85.1479 43.8137 83.9316 41.3804 81.4492C38.8986 78.9669 37.6816 75.8521 37.6816 72.0069C37.6816 68.2107 38.8986 65.0954 41.3804 62.6135C43.8137 60.1797 47.0264 58.9632 50.9685 58.9632C54.9111 58.9632 58.0749 60.1797 60.5568 62.6135Z" fill="white"/>
<path d="M109.533 78.4596C111.104 78.4596 112.381 77.8705 113.412 76.7409C114.443 75.6115 114.934 74.0403 114.934 72.0762C114.934 67.9513 112.675 65.3979 109.533 65.3979C106.341 65.3979 104.131 67.8039 104.131 71.8796V72.1742C104.131 74.0893 104.622 75.6115 105.653 76.7409C106.685 77.8705 107.961 78.4596 109.533 78.4596V78.4596ZM95.9307 94.3203V59.3573H104.328V62.8438H104.377C105.555 60.3395 108.649 58.7191 111.84 58.7191C115.327 58.7191 118.126 59.9466 120.139 62.3527C122.153 64.808 123.184 68.0488 123.184 72.0755C123.184 75.9545 122.153 79.0972 120.139 81.5034C118.126 83.9095 115.327 85.1371 111.84 85.1371C108.551 85.1371 105.506 83.6149 104.377 81.2579H104.328V94.3196L95.9307 94.3203Z" fill="white"/>
<path d="M26.3799 84.3307V50.1246H34.78V84.4126L26.3799 84.3307Z" fill="white"/>
<path d="M90.3584 66.6832C88.9994 65.3889 87.1024 64.6762 85.0168 64.6762C83.4136 64.6762 81.7885 65.1125 80.4408 65.9229C82.9599 66.3761 84.4984 68.697 84.4984 71.9715C84.4984 75.632 82.5771 78.1943 79.5113 78.1943C76.4 78.1943 74.4787 75.632 74.4787 71.9715C74.4787 71.0166 74.6106 70.1435 74.8592 69.3731C75.877 64.7738 80.5138 62.0848 85.0168 62.0848C86.6045 62.0848 88.196 62.4164 89.6396 63.1004C89.4753 62.913 89.3065 62.728 89.1294 62.5473C86.6402 60.1063 83.4671 58.8862 79.5129 58.8862C75.5591 58.8862 72.3369 60.1063 69.8963 62.5473C67.4071 65.0366 66.1865 68.1611 66.1865 71.9685C66.1865 75.8251 67.4071 78.9491 69.8963 81.4388C72.3369 83.9285 75.5591 85.1484 79.5129 85.1484C83.4671 85.1484 86.6402 83.9285 89.1294 81.4388C91.4104 79.1119 92.6178 76.7257 92.7742 72.7155C92.6563 70.1601 91.8281 68.0829 90.3584 66.6832" fill="white"/>
<path d="M86.9547 109.803C85.6595 109.803 84.633 110.724 84.5107 112.058H89.3987C89.3741 110.797 88.3477 109.803 86.9547 109.803Z" fill="white"/>
<path d="M104.379 111.378C102.4 111.16 101.031 111.378 100.298 112.009C99.5405 112.663 99.1739 113.778 99.1739 115.402V119.741H94.9948V107.33H99.1739V110.675C99.8826 108.154 101.544 107.064 104.379 107.064V111.378ZM93.3836 114.505H84.3902V114.578C84.5124 116.105 85.6367 117.051 87.0053 117.051C88.2272 117.051 89.0093 116.541 89.3513 115.523H93.3348C92.6261 118.529 90.2312 120.056 87.0053 120.056C85.0258 120.056 83.4129 119.45 82.1665 118.263C80.92 117.075 80.3091 115.499 80.3091 113.536C80.3091 111.645 80.9446 110.094 82.1908 108.857C83.4372 107.621 85.0258 107.015 86.9075 107.015C88.8625 107.015 90.4266 107.621 91.6241 108.833C92.7971 110.069 93.3836 111.718 93.3836 113.802V114.505ZM78.7229 119.741H74.5439V118.02H74.5195C73.933 119.256 72.2712 120.056 70.6826 120.056C68.9476 120.056 67.5545 119.45 66.5526 118.238C65.5507 117.051 65.0375 115.451 65.0375 113.463C65.0375 111.548 65.5507 109.972 66.5526 108.785C67.5545 107.597 68.9476 107.015 70.6826 107.015C72.3201 107.015 73.8353 107.766 74.4217 108.93H74.4463V102.773H78.7229V119.741ZM63.1927 105.658H59.0136V102.774H63.1927V105.658ZM63.1927 119.741H59.0136V107.33H63.1927V119.741ZM51.5062 120.056C47.8649 120.056 45.5677 118.457 45.3722 115.184H49.0868C49.2089 116.517 50.0155 117.196 51.4573 117.196C52.6057 117.196 53.1924 116.832 53.1924 116.081C53.1924 115.717 53.0214 115.451 52.7037 115.281C52.3859 115.136 51.6284 114.918 50.4552 114.651C50.4309 114.651 49.2089 114.36 49.1356 114.336C49.0379 114.311 48.8181 114.263 48.5003 114.166C47.8404 113.996 47.7916 113.924 47.2785 113.681C46.7652 113.439 46.6919 113.293 46.3252 112.93C46.1542 112.76 46.032 112.566 45.9587 112.372C45.8365 112.009 45.69 111.5 45.69 110.942C45.69 108.421 47.6938 107.015 51.2374 107.015C54.5854 107.015 56.7115 108.518 56.9804 111.548H53.2657C53.0945 110.263 52.5326 109.73 51.1884 109.73C50.2108 109.73 49.5267 110.142 49.5267 110.796C49.5267 111.184 49.6733 111.451 49.991 111.596C50.3087 111.742 50.993 111.912 52.0438 112.13C53.7056 112.493 54.7808 112.809 55.2942 113.051C56.5161 113.633 57.127 114.602 57.127 115.936C57.127 118.529 55.0497 120.056 51.5062 120.056ZM26.3818 123.935H123.356V99.1162H26.3818V123.935Z" fill="white"/>
<path d="M71.854 110.312C71.0721 110.312 70.4367 110.603 69.9235 111.16C69.4105 111.718 69.1416 112.493 69.1416 113.463C69.1416 115.499 70.29 116.76 71.854 116.76C73.4426 116.76 74.5425 115.572 74.5425 113.56V113.414C74.5179 112.469 74.2734 111.694 73.7847 111.136C73.2715 110.578 72.6362 110.312 71.854 110.312" fill="white"/>
</svg>
