<svg width="110" height="24" viewBox="0 0 110 24" fill="none" xmlns="http://www.w3.org/2000/svg">
<g clip-path="url(#clip0)">
<path d="M0.0529611 0.465077L0.929985 0.594109L1.32863 0.697335L1.64755 0.490883H8.90293L9.00923 2.78766H9.56734C9.56734 2.78766 11.348 0.0263672 16.3975 0.0263672C21.447 0.0263672 24.1312 2.52959 24.1312 7.38121C24.1312 12.2328 24.1312 23.1748 24.1312 23.1748C24.1312 23.1748 20.7029 22.9425 20.3042 23.1748C19.9056 23.407 15.3344 23.3038 14.5106 23.0457V7.56185C14.5106 7.56185 14.0853 6.27153 11.8529 6.71024C11.3214 6.81346 10.843 7.07153 10.4444 7.40701C10.2317 7.58766 10.1254 7.7683 9.88626 8.77475C9.24842 11.4328 9.99256 23.0715 9.99256 23.0715C9.99256 23.0715 0.770526 23.2006 0.292149 23.0715C-0.186227 22.9425 0.0529611 0.465077 0.0529611 0.465077Z" fill="white"/>
<path d="M41.9911 0C34.47 0 28.3574 5.36774 28.3574 12C28.3574 18.6323 34.4434 24 41.9911 24C49.5123 24 55.5983 18.6323 55.5983 12C55.5983 5.36774 49.5123 0 41.9911 0ZM44.8083 15.3032C44.6488 15.6645 44.6754 17.7032 42.3632 17.729C40.0511 17.7548 39.2538 16.9548 39.0677 16.3097C39.0677 16.3097 38.9349 8.69677 38.9614 8.05161C39.0146 7.40645 40.2105 5.80645 41.3799 5.85806C42.5493 5.90968 44.3299 6.34839 44.5691 7.12258C44.7817 7.89677 45.2866 12.0774 44.8083 15.3032Z" fill="white"/>
<path d="M55.8369 0.438874H66.0688L70.2413 11.3808L75.0251 0.232422H82.121C82.4665 0.722744 72.9256 22.7098 72.9256 22.7098C72.9256 22.7098 65.9625 23.2518 65.7499 23.1486C65.5107 23.0711 55.8369 0.438874 55.8369 0.438874Z" fill="white"/>
<path d="M108.619 11.4069C109.336 7.97462 109.442 1.75527 101.496 0.516559C95.8618 -0.283441 88.1281 -0.696344 83.4506 6.83914L92.1943 7.84559C92.1943 7.84559 95.3569 2.99398 99.4231 7.01979C99.5294 7.32946 99.1307 8.10366 98.9712 8.05204C98.7852 8.02624 88.8456 8.38753 84.8591 12.2327C80.8727 16.0779 82.361 24.2843 92.8852 23.6133C94.9848 23.3295 99.9014 20.1811 99.9014 20.1811L100.087 23.1488H110.027C110 23.1488 107.476 17.2908 108.619 11.4069ZM95.9681 17.7811C93.9749 18.0649 93.0979 16.9295 93.4433 15.7424C94.1078 13.4714 98.7321 12.2843 98.7321 12.2843C99.5825 15.1488 97.9348 17.4972 95.9681 17.7811Z" fill="white"/>
</g>
<defs>
<clipPath id="clip0">
<rect width="110" height="24" fill="white"/>
</clipPath>
</defs>
</svg>
