<svg width="113" height="41" viewBox="0 0 113 41" fill="none" xmlns="http://www.w3.org/2000/svg">
<path d="M26.7402 10.9489L31.4621 6.67634C28.2319 1.86876 17.6073 -2.14461 9.25196 1.27889C0.895308 4.70305 -0.566337 14.1469 4.78278 18.8626C10.1326 23.5783 21.4774 22.5407 24.3659 26.3398C27.3005 30.1978 23.1877 34.2521 18.4564 34.5491C13.788 34.8407 8.41549 34.1437 5.19332 28.5525L0 33.4216C4.62565 39.471 13.8776 41.533 22.2409 39.8043C30.6036 38.0777 34.3232 30.213 31.3197 23.2721C29.9169 20.0311 26.091 18.2436 21.5469 17.2477C16.3723 16.1149 11.766 15.7188 9.45188 13.2747C7.14441 10.8359 9.22187 7.18157 12.8626 5.94165C16.504 4.70305 22.8895 5.47742 26.7402 10.9489V10.9489ZM34.0999 3.30707H40.7863V39.678H34.0999V3.30707ZM80.2086 16.2002H86.2538V11.7425H80.2086V3.05181L73.8525 9.36713V11.7425H69.6381V16.2002H73.8525V33.4811C73.8525 38.2483 76.8474 40.3354 81.9638 40.3354H84.1736V34.3566C81.4576 34.3156 80.2086 33.6358 80.2086 31.8946V16.2002V16.2002ZM99.7509 10.7393C90.1045 10.7393 85.874 18.3977 85.874 25.3492C85.874 31.7465 90.2161 40.3354 100.265 40.3354C110.315 40.3354 112.509 32.0229 112.509 30.6276L106.285 30.6236C106.285 32.0884 104.516 34.8228 100.724 34.8228C96.9299 34.8228 92.6774 32.2127 92.6774 26.4522H112.828C113.225 18.0234 108.996 10.7393 99.7509 10.7393V10.7393ZM92.9468 21.5415C93.7305 18.6635 95.9691 16.1837 99.8412 16.1837C103.713 16.1837 105.885 18.6847 106.108 21.5415H92.9468ZM68.0728 32.1519V19.1734C68.0728 13.5723 64.2542 10.74 56.4632 10.74C48.6742 10.74 44.3696 13.5736 44.0934 19.5946H50.2556C50.4943 17.085 52.2996 15.7572 55.9256 15.7572C59.5517 15.7572 61.7461 16.9528 61.4359 20.7446C55.4108 23.1134 48.0163 22.2828 44.9132 25.9688C41.5713 29.9379 42.7046 35.8121 46.0478 38.4084C49.3897 41.0059 57.0222 41.7188 61.5883 36.892L62.0022 39.5154L69.1533 39.4949C68.4258 37.1698 68.0728 36.0184 68.0728 32.1519V32.1519ZM61.4473 29.1126C61.4473 32.2332 58.4431 34.717 55.041 34.7746C53.1642 34.807 50.4013 34.4591 49.9567 31.9846C49.5134 29.5087 51.5053 28.3138 52.6413 27.9203C55.2095 27.0289 56.6484 27.2226 61.4466 25.7592L61.4473 29.1126V29.1126Z" fill="white"/>
</svg>
