<svg width="20" height="20" viewBox="0 0 20 20" fill="none" xmlns="http://www.w3.org/2000/svg">
<path d="M19.9292 14.4063C19.7892 14.0264 19.4993 13.8464 19.2194 13.6565C19.1694 13.6265 19.1094 13.5965 19.0694 13.5765C18.9995 13.5265 18.8895 13.4865 18.7995 13.4365C17.8597 12.9367 17.1199 12.3068 16.6101 11.567C16.4733 11.3549 16.3498 11.1345 16.2402 10.9072C16.2002 10.7772 16.2002 10.7072 16.2302 10.6472C16.2602 10.5973 16.3001 10.5473 16.3501 10.5173C16.5001 10.4073 16.6801 10.3073 16.79 10.2274C17 10.0974 17.1499 9.99742 17.2499 9.92743C17.6398 9.6575 17.9097 9.34758 18.0797 9.04766C18.3196 8.59778 18.3496 8.06791 18.1597 7.59804C17.9097 6.92821 17.2699 6.50832 16.5001 6.50832C16.3401 6.50832 16.1802 6.52831 16.0002 6.5583C16.0002 6.5683 15.9402 6.5783 15.9003 6.5883C15.9003 6.12842 15.8903 5.64854 15.8503 5.16866C15.7103 3.4891 15.1205 2.60933 14.5006 1.90951C14.1107 1.46962 13.6508 1.08972 13.141 0.799793C12.2112 0.26993 11.1515 0 10.0018 0C8.85207 0 7.80234 0.26993 6.87259 0.799793C6.35272 1.08972 5.89284 1.46962 5.50294 1.90951C4.8831 2.60933 4.30325 3.4891 4.15329 5.16866C4.1133 5.64854 4.1033 6.12842 4.1133 6.5883C4.06331 6.5783 4.00333 6.5683 4.00333 6.5583C3.82337 6.52831 3.66341 6.50832 3.50346 6.50832C2.73365 6.50832 2.09382 6.92821 1.84388 7.59804C1.65393 8.06791 1.68393 8.59778 1.92386 9.04766C2.09382 9.34758 2.36375 9.6575 2.75365 9.92743C2.85362 9.99742 3.00359 10.0974 3.21353 10.2374L3.63342 10.5073C3.69341 10.5473 3.7334 10.5973 3.77339 10.6472C3.80338 10.7172 3.80338 10.7872 3.75339 10.9172C3.65342 11.1471 3.53345 11.3471 3.39348 11.567C2.89361 12.2968 2.1838 12.9167 1.27403 13.4065C0.784159 13.6665 0.284288 13.8464 0.0743422 14.4063C-0.0856165 14.8462 0.00436044 15.346 0.424252 15.7559C0.574213 15.9059 0.744169 16.0359 0.93412 16.1358C1.33402 16.3458 1.75391 16.5257 2.1838 16.6357C2.27377 16.6657 2.36375 16.6957 2.43373 16.7557C2.58369 16.8756 2.5637 17.0756 2.76365 17.3455C2.86362 17.5055 3.00359 17.6354 3.13355 17.7354C3.54345 18.0253 4.00333 18.0353 4.5032 18.0553C4.94308 18.0753 5.44295 18.0953 6.00281 18.2853C6.26274 18.3453 6.50268 18.5152 6.79261 18.6952C7.50242 19.1151 8.42218 19.6949 10.0018 19.6949C11.5714 19.6949 12.5011 19.1151 13.2209 18.6852C13.5009 18.5152 13.7508 18.3453 14.0007 18.2853C14.5506 18.0953 15.0605 18.0753 15.5004 18.0553C16.0002 18.0453 16.4601 18.0253 16.87 17.7354C17.04 17.6154 17.1799 17.4555 17.2899 17.2755C17.4299 17.0356 17.4299 16.8456 17.5598 16.7557C17.6298 16.7057 17.7098 16.6657 17.7998 16.6457C18.2396 16.5257 18.6595 16.3458 19.0594 16.1358C19.2694 16.0259 19.4493 15.8859 19.5993 15.7159H19.6093C19.9992 15.306 20.0792 14.8462 19.9292 14.4063V14.4063ZM18.5296 15.1561C17.6698 15.626 17.0999 15.576 16.6601 15.8459C16.5001 15.9659 16.4501 16.1258 16.4201 16.2858L16.3901 16.4857C16.3701 16.6257 16.3401 16.7457 16.2402 16.8157C15.9003 17.0456 14.9105 16.7957 13.6308 17.2156C12.5711 17.5655 11.9013 18.5752 10.0018 18.5752C8.10227 18.5752 7.45244 17.5755 6.37271 17.2156C5.10304 16.7957 4.1033 17.0456 3.77339 16.8157C3.50346 16.6257 3.7234 16.1058 3.3435 15.8459C2.90361 15.576 2.33376 15.626 1.50397 15.1561C1.19405 14.9961 1.14407 14.8462 1.18406 14.7762C1.22405 14.6862 1.34401 14.6162 1.42399 14.5762C3.07357 13.7864 4.00333 12.7567 4.47321 11.9469C4.91309 11.2271 5.00307 10.6772 5.03306 10.5973C5.06305 10.3873 5.09305 10.2274 4.8631 10.0174C4.64316 9.80747 3.66341 9.20762 3.39348 9.01767C2.9336 8.69775 2.74365 8.38783 2.88362 7.99793C3.00359 7.728 3.23353 7.62803 3.50346 7.62803C3.58344 7.62803 3.66341 7.63803 3.74339 7.65802C4.24326 7.758 4.72314 8.00793 5.00307 8.07791C5.03306 8.08791 5.06305 8.08791 5.10304 8.08791C5.19302 8.08791 5.24301 8.05792 5.273 7.99793C5.283 7.95794 5.29299 7.90796 5.29299 7.84797C5.253 7.30811 5.18302 6.25838 5.263 5.26864C5.30299 4.84875 5.37297 4.48884 5.46295 4.17892C5.6629 3.4991 6.00281 3.04921 6.34272 2.63932C6.59266 2.34939 7.75236 1.11971 10.0018 1.11971C11.8513 1.11971 12.961 1.95949 13.4409 2.40938C13.5409 2.50935 13.6208 2.58933 13.6608 2.63932C14.0407 3.0792 14.3806 3.55908 14.5806 4.31888C14.6506 4.58881 14.7106 4.90873 14.7406 5.26864C14.8205 6.24838 14.7505 7.30811 14.7106 7.84797C14.7106 7.88796 14.7106 7.92795 14.7206 7.95794C14.7306 8.04792 14.7905 8.08791 14.9005 8.08791C14.9405 8.08791 14.9705 8.08791 15.0005 8.07791C15.2804 8.00793 15.7603 7.758 16.2602 7.64802C16.3401 7.63803 16.4201 7.62803 16.5001 7.62803C16.75 7.62803 17 7.71801 17.0999 7.94795L17.1099 7.98794H17.1199V7.99793C17.2699 8.37783 17.07 8.69775 16.6201 9.00767C16.3501 9.19762 15.3604 9.80747 15.1404 10.0074C14.9105 10.2274 14.9405 10.3873 14.9705 10.5973C15.0005 10.6972 15.1804 11.647 16.0802 12.7067C16.6301 13.3465 17.4199 14.0164 18.5796 14.5762C18.6495 14.6062 18.7395 14.6562 18.7895 14.7162C18.8195 14.7662 18.8395 14.8062 18.8295 14.8462C18.8195 14.9461 18.7295 15.0461 18.5296 15.1561V15.1561Z" fill="black"/>
</svg>
