<svg width="17" height="20" viewBox="0 0 17 20" fill="none" xmlns="http://www.w3.org/2000/svg">
<path d="M6.50029 0H5.37528L4.62527 2.87504L3.87526 0H2.62524C2.87525 0.750009 3.12525 1.37502 3.37525 2.12503C3.75026 3.12504 4.00026 4.00005 4.00026 4.50005V7.50009H5.12527V4.50005L6.50029 0ZM9.50033 5.62507V3.75005C9.50033 3.12504 9.37533 2.75003 9.12532 2.37503C8.87532 2.00002 8.50032 1.87502 8.00031 1.87502C7.5003 1.87502 7.1253 2.12503 6.8753 2.50003C6.62529 2.75003 6.50029 3.12504 6.50029 3.75005V5.75007C6.50029 6.37508 6.62529 6.75008 6.8753 7.00009C7.1253 7.37509 7.5003 7.50009 8.00031 7.50009C8.50032 7.50009 8.87532 7.25009 9.12532 6.87508C9.37533 6.75008 9.50033 6.25008 9.50033 5.62507ZM8.50032 5.87507C8.50032 6.37508 8.37531 6.62508 8.00031 6.62508C7.62531 6.62508 7.5003 6.37508 7.5003 5.87507V3.50004C7.5003 3.00004 7.62531 2.75003 8.00031 2.75003C8.37531 2.75003 8.50032 3.00004 8.50032 3.50004V5.87507V5.87507ZM13.2504 7.50009V1.87502H12.2504V6.12507C12.0004 6.50008 11.8754 6.62508 11.6254 6.62508C11.5004 6.62508 11.3754 6.50008 11.3754 6.37508V1.87502H10.3753V6.25008C10.3753 6.62508 10.3753 6.87508 10.5003 7.12509C10.5003 7.37509 10.7503 7.50009 11.1253 7.50009C11.5004 7.50009 11.8754 7.25009 12.2504 6.87508V7.50009H13.2504Z" fill="black"/>
<path d="M13.7502 13.125C13.3752 13.125 13.2502 13.375 13.2502 13.875V14.375H14.2503V13.875C14.2503 13.375 14.1253 13.125 13.7502 13.125Z" fill="black"/>
<path d="M10.1252 13.125C10.0002 13.125 9.75025 13.25 9.62524 13.375V16.75C9.75025 16.875 10.0002 17 10.1252 17C10.3753 17 10.5003 16.75 10.5003 16.25V13.875C10.5003 13.375 10.3753 13.125 10.1252 13.125V13.125Z" fill="black"/>
<path d="M16.2502 10.375C16.0002 9.50001 15.2502 8.75 14.5002 8.75C12.5002 8.5 10.3751 8.5 8.2501 8.5C6.12507 8.5 4.12505 8.5 2.00002 8.75C1.25002 8.75 0.500006 9.50001 0.250003 10.375C2.98023e-08 11.625 0 13.0001 0 14.2501C0 15.5001 2.98023e-08 16.8751 0.250003 18.1251C0.500006 19.0001 1.12501 19.6251 2.00002 19.7501C4.12505 20.0001 6.12507 20.0001 8.2501 20.0001C10.3751 20.0001 12.3752 20.0001 14.5002 19.7501C15.3752 19.6251 16.1252 19.0001 16.2502 18.1251C16.5002 16.8751 16.5002 15.5001 16.5002 14.2501C16.5002 13.0001 16.5002 11.625 16.2502 10.375ZM4.75006 11.5H3.50004V17.8751H2.37503V11.5H1.25002V10.375H4.75006V11.5ZM7.75009 17.8751H6.75008V17.2501C6.37508 17.7501 6.00007 17.8751 5.62507 17.8751C5.25006 17.8751 5.12506 17.7501 5.00006 17.5001C5.00006 17.3751 4.87506 17.1251 4.87506 16.6251V12.25H5.87507V16.6251C5.87507 16.7501 6.00007 16.8751 6.12507 16.8751C6.37508 16.8751 6.50008 16.7501 6.75008 16.3751V12.25H7.75009V17.8751ZM11.5001 16.1251C11.5001 16.6251 11.5001 17.0001 11.3751 17.2501C11.2501 17.6251 11.0001 17.8751 10.6251 17.8751C10.2501 17.8751 9.87512 17.6251 9.62512 17.2501V17.7501H8.62511V10.375H9.62512V12.7501C10.0001 12.375 10.2501 12.125 10.6251 12.125C11.0001 12.125 11.2501 12.375 11.3751 12.7501C11.5001 13.0001 11.5001 13.3751 11.5001 13.8751V16.1251ZM15.2502 15.2501H13.2502V16.2501C13.2502 16.7501 13.3752 17.0001 13.7502 17.0001C14.0002 17.0001 14.1252 16.8751 14.2502 16.6251V16.0001H15.2502V16.7501C15.2502 17.0001 15.1252 17.1251 15.0002 17.3751C14.7502 17.7501 14.3752 18.0001 13.7502 18.0001C13.2502 18.0001 12.8752 17.7501 12.5002 17.3751C12.2501 17.1251 12.1251 16.6251 12.1251 16.1251V14.2501C12.1251 13.6251 12.2502 13.2501 12.3752 13.0001C12.6252 12.625 13.0002 12.375 13.6252 12.375C14.1252 12.375 14.7502 12.625 15.0002 13.0001C15.2502 13.2501 15.2502 13.7501 15.2502 14.2501V15.2501Z" fill="black"/>
</svg>
