<svg xmlns="http://www.w3.org/2000/svg" viewBox="0 0 115.32 123.86"><defs><style>.cls-1,.cls-3{fill:#fff;}.cls-1,.cls-2{stroke:#000;}.cls-1{stroke-width:4px;}.cls-2{fill:#d5c2f9;stroke-width:4px;}</style></defs><g id="Calque_2" data-name="Calque 2"><g id="Calque_1-2" data-name="Calque 1"><rect class="cls-1" x="67.7" y="35.36" width="12.75" height="95.33" transform="translate(-37.06 77.5) rotate(-45.41)"/><rect class="cls-2" x="37.25" y="48" width="12.39" height="9.67" transform="translate(-24.69 46.74) rotate(-45.46)"/><path class="cls-3" d="M63,10.72s1.13,6.43,2.68,8,5.63,2.68,5.63,2.68-4.56,1.08-5.63,2.68-2.68,8-2.68,8-1.12-6.43-2.68-8-5.35-2.68-5.35-2.68S59,20,60.28,18.75,63,10.72,63,10.72Z"/><path class="cls-3" d="M18.75,0s1.13,6.43,2.68,8,5.63,2.68,5.63,2.68-4.55,1.07-5.63,2.68-2.68,8-2.68,8-1.12-6.42-2.67-8-5.36-2.68-5.36-2.68S14.81,9.31,16.08,8,18.75,0,18.75,0Z"/><path class="cls-3" d="M8,50.91s1.13,6.43,2.68,8,5.62,2.68,5.62,2.68-4.55,1.08-5.62,2.68-2.68,8-2.68,8-1.13-6.43-2.68-8S0,61.62,0,61.62s4.09-1.41,5.36-2.68S8,50.91,8,50.91Z"/></g></g></svg>