<svg width="165" height="165" viewBox="0 0 165 165" fill="none" xmlns="http://www.w3.org/2000/svg">
<circle cx="82.5246" cy="82.5246" r="57.5" transform="rotate(32.9468 82.5246 82.5246)" fill="#F04C36" stroke="white" stroke-width="4"/>
<circle cx="82.5247" cy="82.5246" r="34.3722" transform="rotate(32.9468 82.5247 82.5246)" stroke="white" stroke-width="5"/>
<path d="M94.8318 50.3355C94.8318 50.3355 81.0132 49.299 66.1626 72.2135C51.312 95.1279 58.1736 106.899 58.1736 106.899" stroke="white" stroke-width="5"/>
<path d="M108.285 60C108.285 60 114.72 71.9028 100.219 94.277C85.719 116.651 72.4913 115.23 72.4913 115.23" stroke="white" stroke-width="5"/>
<rect x="99.915" y="52" width="5" height="70.6502" transform="rotate(32.9468 99.915 52)" fill="white"/>
<rect x="53.2104" y="61" width="71.6816" height="5" transform="rotate(32.9468 53.2104 61)" fill="white"/>
<rect x="69.2803" y="48.4384" width="59.3049" height="5" transform="rotate(32.9468 69.2803 48.4384)" fill="white"/>
<rect x="50.2104" y="83" width="54.606" height="5" transform="rotate(32.9468 50.2104 83)" fill="white"/>
</svg>
