<svg xmlns="http://www.w3.org/2000/svg" viewBox="0 0 483.11 299.29"><defs><style>.cls-1{fill:#ffb4c8;stroke:#fff;stroke-width:10px;}.cls-2{fill:#f48637;}</style></defs><g id="Calque_2" data-name="Calque 2"><g id="Calque_1-2" data-name="Calque 1"><g id="STICKER_SMATCH_ROSE" data-name="STICKER SMATCH ROSE"><rect id="Rectangle_24" data-name="Rectangle 24" class="cls-1" x="145.61" y="-71.5" width="191.89" height="442.29" rx="5" transform="translate(38.86 348.78) rotate(-76.27)"/><path id="SMATCH" class="cls-2" d="M128.07,153.22a22.31,22.31,0,0,1-9.28-4.49,15.59,15.59,0,0,1-5.32-16.49l.72-3a1.31,1.31,0,0,1,.59-.87,1.33,1.33,0,0,1,1-.12l13.63,3.33a1.26,1.26,0,0,1,1,1.64l-.54,2.18a3.6,3.6,0,0,0,.15,2.45,2.21,2.21,0,0,0,1.53,1.3,2.31,2.31,0,0,0,1.94-.36,3,3,0,0,0,1.19-1.84,4.25,4.25,0,0,0-.69-3.23,45.51,45.51,0,0,0-4.73-6.06,89.78,89.78,0,0,1-5.89-7.37,24.75,24.75,0,0,1-3.33-7.58,20.07,20.07,0,0,1,4.55-17.88,16.64,16.64,0,0,1,8-4.52,21.84,21.84,0,0,1,10.33.21,21.58,21.58,0,0,1,9.26,4.58,16,16,0,0,1,5.06,7.72,17.87,17.87,0,0,1,.14,9.67l-.47,1.92a1.24,1.24,0,0,1-1.63,1l-13.56-3.31a1.25,1.25,0,0,1-1-1.63l.56-2.27a3.14,3.14,0,0,0-.19-2.27,2.42,2.42,0,0,0-3.67-.9,4.14,4.14,0,0,0-1.19,2.21,5.39,5.39,0,0,0,.57,3.75,39.68,39.68,0,0,0,4.46,6q4.59,5.48,6.77,8.7a18.78,18.78,0,0,1,3.05,6.86,16.22,16.22,0,0,1-.16,7.84q-1.93,7.95-8.25,11.41T128.07,153.22Zm23.25,4.94a1.36,1.36,0,0,1-.88-.59,1.3,1.3,0,0,1-.11-1L164.64,98a1.35,1.35,0,0,1,.58-.88,1.37,1.37,0,0,1,1.05-.11l13.64,3.33a1.65,1.65,0,0,1,1.34,1.35l3.32,12.58c.07.2.17.31.28.34a.35.35,0,0,0,.42-.17l8.74-9.63a1.74,1.74,0,0,1,1.81-.58l13.64,3.33a1.26,1.26,0,0,1,1,1.63l-14.31,58.58a1.24,1.24,0,0,1-1.63,1l-13.82-3.37a1.26,1.26,0,0,1-1-1.63l8.69-35.59a.41.41,0,0,0-.15-.5c-.1-.09-.24,0-.41.18l-7,7.17-1.26,1.36-.08,0-3.3-11.55c-.06-.26-.18-.38-.37-.37s-.21.1-.28.4l-8.74,35.75a1.35,1.35,0,0,1-.58.88,1.33,1.33,0,0,1-1.05.11Zm76.18,18.61a1.25,1.25,0,0,1-1.1-1.56l.82-6.75A.37.37,0,0,0,227,168a.54.54,0,0,0-.31-.26L219,165.9a.65.65,0,0,0-.72.29l-2.67,6.39a1.31,1.31,0,0,1-1.7.88l-13.73-3.35c-.93-.23-1.19-.79-.79-1.68l26.75-55.63a1.4,1.4,0,0,1,1.76-.77l15.91,3.89a1.4,1.4,0,0,1,1.21,1.5l-1.92,61.69-.08.35c-.17.7-.67.95-1.48.75Zm-3.68-23.59c-.15.33,0,.55.39.65l3.94,1c.29.07.48-.07.56-.42L230.42,139c0-.31-.07-.48-.24-.52s-.24.09-.37.37Zm70.89-24.84a1.34,1.34,0,0,1,.87.59,1.3,1.3,0,0,1,.12,1l-2.8,11.46a1.34,1.34,0,0,1-.59.87,1.3,1.3,0,0,1-1,.12L281,139.9a.47.47,0,0,0-.65.39l-11.07,45.29a1.35,1.35,0,0,1-.58.88,1.37,1.37,0,0,1-1,.11l-13.81-3.37a1.36,1.36,0,0,1-.88-.59,1.33,1.33,0,0,1-.11-1.05l11.06-45.28a.48.48,0,0,0-.39-.66l-10.06-2.45a1.24,1.24,0,0,1-1-1.63l2.8-11.46a1.3,1.3,0,0,1,.58-.87,1.33,1.33,0,0,1,1.05-.12Zm7.72,67.48q-8.65-2.12-12.67-8.47t-1.93-14.83L294.07,147q2.07-8.48,8.44-12.2t15.21-1.57q8.65,2.11,12.68,8.38t2,14.75l-.11.44a1.73,1.73,0,0,1-.6,1,1.33,1.33,0,0,1-1,.11l-13.92-2.93c-.87-.22-1.21-.73-1-1.55l.53-2.18a3.53,3.53,0,0,0-.21-2.56,2.39,2.39,0,0,0-1.71-1.34,2.66,2.66,0,0,0-2.22.38,3.77,3.77,0,0,0-1.28,2.19l-6.86,28.07a3.75,3.75,0,0,0,.13,2.53,2.79,2.79,0,0,0,1.82,1.28,2.54,2.54,0,0,0,2.11-.32,3.49,3.49,0,0,0,1.36-2.17l.58-2.36a1.15,1.15,0,0,1,1.61-.9l13.71,3.81a1.57,1.57,0,0,1,.9.5.79.79,0,0,1,.2.69l-.22.88a20.13,20.13,0,0,1-4.86,9.28A16.51,16.51,0,0,1,313,196,21.48,21.48,0,0,1,302.43,195.82Zm59.26-49.72a1.25,1.25,0,0,1,1.64-1l13.81,3.37a1.24,1.24,0,0,1,1,1.63l-14.31,58.58a1.24,1.24,0,0,1-1.63,1l-13.82-3.37a1.26,1.26,0,0,1-1-1.64l5.32-21.77a.48.48,0,0,0-.4-.65l-4-1a.48.48,0,0,0-.65.4l-5.32,21.77a1.25,1.25,0,0,1-1.63,1l-13.81-3.38a1.35,1.35,0,0,1-.88-.58,1.37,1.37,0,0,1-.12-1.05l14.32-58.58a1.3,1.3,0,0,1,.58-.87,1.33,1.33,0,0,1,1.05-.12l13.81,3.38a1.35,1.35,0,0,1,.88.58,1.37,1.37,0,0,1,.11,1.05l-5.29,21.68a.47.47,0,0,0,.39.65l4,1a.49.49,0,0,0,.66-.4Z"/></g></g></g></svg>