<svg xmlns="http://www.w3.org/2000/svg" viewBox="0 0 438.96 199.95"><defs><style>.cls-1{fill:#fbb2dc;stroke:#fff;stroke-width:8px;}</style></defs><g id="Calque_2" data-name="Calque 2"><g id="Calque_1-2" data-name="Calque 1"><rect class="cls-1" x="162.98" y="-109.52" width="113" height="419" rx="6" transform="translate(77.84 295.18) rotate(-78.52)"/><path d="M94,92.27c1.19,4.42,2.74,8.06,9.1,9.55,7.59,1.54,14.31-4.22,16.3-14.06s-2-17.71-9.54-19.25c-5.83-1.18-9.37,1.43-12,5.27L94,73c2.65-2.79,4.39-4.92,6.06-12.16l1.24-6.14-8.9-1.81L83.5,96.8l8.1,1.65c.39-2-.31-4.31-1.4-7ZM110,85.86c-1.43,7-4.83,9.34-9.35,8.42s-6.78-4.9-5.45-11.42,4.89-9.33,9.47-8.4S111.45,78.84,110,85.86Zm12.81,18.93,8.9,1.8,2.45-12c1.69-8.34,4.91-10.36,11.43-9a32.39,32.39,0,0,1,3.41.89l1.86-9.16A10.9,10.9,0,0,0,149,76.8c-6.71-1.37-9.79,1.6-12.66,8L132.59,84a21.13,21.13,0,0,0,4.63-9l-8-1.63ZM168.39,80.4c-8.84-1.79-15.29,1.67-16.81,6.58l7.67,3.39c1.38-2.92,3.89-4.37,7.91-3.56,3.51.72,4.82,2.62,4.26,5.38l-.24,1.19c-11.72-1.14-20.28-.14-22.2,8.36-1.09,5.33,2.43,9.89,8.2,11.06,5.08,1,8.76-1.35,11.12-5.57l2.95.59c-.78,4.81-.07,6.78,5.51,7.92l3.7.75,1.38-6.78-2.76-.56c-1.7-.34-1.85-.57-1.5-2.26l2.33-11.48C181.55,87.32,177.42,82.24,168.39,80.4Zm-10.2,22.29c.81-4,5.43-4.25,11.87-3.79l-.41,2c-1,5-4.5,6.73-8.08,6C158.88,106.36,157.77,104.76,158.19,102.69Zm35.9,16.56,3-14.86c.92-4.52,2.62-10,8.33-8.83,3.19.65,4.63,2.9,3.82,6.92l-3.87,19.06,8.9,1.81,4.22-20.76c1.44-7.09-1.49-12.32-8.32-13.7-4.77-1-8.72,1.75-11.25,6.2L195,94.3c2.28-2.21,4.08-4.66,4.53-6.59l-8-1.63-6.37,31.36ZM223.78,109c-2,9.85,1.94,17.77,9.53,19.31,6.38,1.1,9.28-1.64,12.11-5.25l3.76.76c-2,1.94-3.59,3.85-4,5.85l8.09,1.65,8.92-43.91-8.91-1.81L252,91.7c-1.46,7.21-.5,10.22.72,13.53l-3.77-.76c-.94-4.7-3.13-8.34-8.91-9.51C232.49,93.41,225.79,99,223.78,109Zm24.15,4.91c-1.33,6.52-5,9.31-9.48,8.39s-6.75-4.37-5.32-11.4,4.83-9.34,9.35-8.42S249.25,107.33,247.93,113.86Zm20.85-16.54,9.47,1.92,1.71-8.4-9.47-1.92ZM261.86,133l8.91,1.81,6.37-31.36-8.91-1.81Zm26.37,5.35,3-14.86c.91-4.52,2.61-10,8.32-8.83,3.2.65,4.63,2.9,3.82,6.92l-3.87,19.06,8.9,1.81,4.22-20.76c1.44-7.09-1.48-12.31-8.32-13.7-4.77-1-8.72,1.75-11.25,6.2l-3.89-.79c2.28-2.21,4.08-4.65,4.54-6.59l-8-1.63-6.37,31.37Zm24.53,11.58c-.71,3.51,1.13,6.37,6.65,7.49l16.12,3.27c6.27,1.27,11.62-1.3,12.88-7.51,1.06-5.2-2.4-10.35-9-11.68l-13.48-2.74c-2.2-.45-3.13-.7-2.86-2,.21-1,1.17-1.59,2.83-1.71a17.71,17.71,0,0,0,6.31,2.39c7.27,1.48,13.7-1.53,15.76-8.16l.18-.55c1-3.14,1.61-3.46,3.56-3.07l3.45.7,1.37-6.77-1.63-.33c-3.07-.63-4.68.22-6.1,4.64l-2.7-.55c-.62-4.63-4.62-7.8-10.14-8.92-7.33-1.49-14,2.12-15.33,8.64-.62,3,.27,5.09,2.25,7.25l-.58,2.83c-3.27.38-5.71,1.77-6.34,4.85-.44,2.19.65,3.92,2.73,4.93l-.59,2.88C315.51,146.06,313.23,147.62,312.76,149.94Zm27.18-22.57c-.65,3.2-3.28,4.89-6.6,4.22s-5.09-3.26-4.44-6.46a5.63,5.63,0,1,1,11,2.24Zm-17.09,24a2.91,2.91,0,0,1-2.54-3.59,3.66,3.66,0,0,1,2.21-2.49l13.73,2.79c2.76.56,3.66,1.92,3.32,3.61s-1.67,2.74-4.49,2.16Z"/></g></g></svg>