<svg xmlns="http://www.w3.org/2000/svg" viewBox="0 0 290.11 239.04"><defs><style>.cls-1{fill:#ffe39c;fill-rule:evenodd;}.cls-2{fill:#f04c36;}</style></defs><g id="Calque_2" data-name="Calque 2"><g id="Calque_1-2" data-name="Calque 1"><g id="STICKER_FREE" data-name="STICKER FREE"><path id="Union" class="cls-1" d="M19,119.2a0,0,0,0,0-.08,0L.18,206.1a8,8,0,0,0,5.7,9.4L91.59,239s.06,0,0-.07a0,0,0,0,1,0-.05L286.26,120.86a8,8,0,0,0,2.69-11l-64.32-106a8,8,0,0,0-11-2.69L19,119.22A0,0,0,0,1,19,119.2Z"/><path id="FREE" class="cls-2" d="M89.73,179.41l-8.66-14.27,16.11-9.77-3.48-5.74L77.59,159.4l-6.16-10.16L91.69,137l-3.48-5.75L61.27,147.54l21.79,35.91Zm26.14-15.86,6.67-4.05L114,145.39l6.88-4.17c4.66-2.83,7.64-2.67,11,1.42L138,150.1l7.18-4.36-7-7.77c-4.15-4.64-7.53-4.55-13.42-1.19l-1.5-2.46a19.43,19.43,0,0,0,6.14-6.32c1.28-2.39,1-5.09-.92-8.22-3.39-5.59-10.25-6.83-17.74-2.29L94.09,127.64Zm-11.63-34.21,8.88-5.39c3.74-2.27,7.23-2.07,9.35,1.42s.71,6.72-3,9l-8.87,5.38Zm74.47-3.91-3.46-5.7-19.7,12-6.06-10,14.77-9-3.42-5.65-14.78,9-5.35-8.83,19.7-11.95-3.49-5.74-26.36,16,21.78,35.91Zm33.51-20.34-3.45-5.69-19.7,11.95-6.07-10,14.78-9-3.43-5.64-14.77,9-5.35-8.82,19.69-11.95-3.48-5.74-26.37,16,21.78,35.91Z"/><path id="SMATCH_SMATCH_SMATCH_SMATCH" data-name="SMATCH SMATCH SMATCH SMATCH" class="cls-2" d="M30.28,133.25a3.46,3.46,0,0,0,4.41.22c1.9-1.15,2.28-2.69,1.51-4s-2-1.38-3.62-.74l-1,.4c-.75.29-1.27.2-1.56-.28s-.16-1.21.72-1.73a1.86,1.86,0,0,1,2.37.18l1-1.23a3.2,3.2,0,0,0-4-.09c-1.7,1-2.14,2.57-1.41,3.76s1.87,1.41,3.37.82l1-.4c1-.37,1.52-.27,1.84.25s.14,1.3-.84,1.9a2.13,2.13,0,0,1-2.79-.34Zm9.91-3.33-1.95-3.22a9.21,9.21,0,0,0-2.45-2.59l.38-.51,6.2,5,1.11-.68-1.57-7.8.63-.1a9.28,9.28,0,0,0,1.16,3.36l2,3.22,1.33-.81-4.35-7.18-2.14,1.3.93,4.57a7.55,7.55,0,0,0,1,2.35l-.51.31a7.71,7.71,0,0,0-1.59-2l-3.64-2.92-2.2,1.33,4.36,7.18ZM48,125.18l1.44-.88L49,122.15l3-1.83,1.69,1.4,1.48-.9-7-5.55-1.77,1.07Zm.27-6.51a6,6,0,0,0-.8-1.9l.5-.3A5.81,5.81,0,0,0,49.29,118l1.65,1.38-2.22,1.34Zm3.46-4,2.49-1.51,3.66,6,1.34-.81-3.66-6,2.53-1.54-.7-1.15L51,113.51Zm7.84-1.46a4.13,4.13,0,0,0,5.93,1.58,3.72,3.72,0,0,0,1.92-4.19l-1.5.25a2.4,2.4,0,0,1-1.12,2.79c-1.38.83-2.84.34-3.83-1.29s-.69-3.09.67-3.92a2.36,2.36,0,0,1,2.92.28l1-1.21a3.76,3.76,0,0,0-4.56-.21A4.16,4.16,0,0,0,59.58,113.2Zm11.67-2.12L69.35,108l3.37-2,1.9,3.13,1.33-.81-4.36-7.18-1.33.81,1.76,2.9-3.37,2-1.76-2.9-1.33.81,4.36,7.18ZM78.51,104a3.46,3.46,0,0,0,4.41.22c1.9-1.15,2.29-2.69,1.52-4s-2-1.38-3.62-.74l-1,.4c-.75.29-1.27.2-1.55-.28s-.16-1.21.71-1.73a1.86,1.86,0,0,1,2.37.18l1-1.23a3.2,3.2,0,0,0-4-.09c-1.69,1-2.13,2.57-1.41,3.76s1.87,1.41,3.37.82l1-.4c1-.37,1.51-.27,1.83.25s.15,1.3-.84,1.9a2.13,2.13,0,0,1-2.79-.34Zm9.91-3.33-2-3.22A9.17,9.17,0,0,0,84,94.85l.38-.51,6.19,5,1.12-.68-1.58-7.8.63-.1a9.1,9.1,0,0,0,1.17,3.36l2,3.22,1.34-.8-4.36-7.19-2.14,1.3.93,4.57a7.55,7.55,0,0,0,1,2.35l-.51.31a7.71,7.71,0,0,0-1.59-2L84.93,93l-2.2,1.33,4.36,7.18Zm7.83-4.74L97.68,95l-.45-2.15,3-1.83,1.69,1.4,1.48-.9-7-5.55-1.77,1.07Zm.26-6.51a6,6,0,0,0-.8-1.9l.5-.3a6,6,0,0,0,1.31,1.57l1.65,1.38L97,91.5Zm3.46-4,2.5-1.51,3.65,6,1.34-.81-3.66-6,2.53-1.54-.69-1.14-6.37,3.85Zm7.85-1.46a4.12,4.12,0,0,0,5.92,1.58,3.72,3.72,0,0,0,1.92-4.19l-1.5.25A2.38,2.38,0,0,1,113,84.37c-1.37.83-2.84.34-3.83-1.29s-.69-3.09.68-3.92a2.35,2.35,0,0,1,2.91.28l1-1.21A3.77,3.77,0,0,0,109.2,78,4.15,4.15,0,0,0,107.82,83.94Zm11.66-2.12-1.9-3.13,3.37-2,1.9,3.13,1.33-.81-4.35-7.18-1.34.81,1.76,2.9-3.36,2-1.76-2.9-1.34.81,4.36,7.18Zm7.26-7.09a3.47,3.47,0,0,0,4.42.22c1.89-1.15,2.28-2.69,1.51-4s-2-1.38-3.62-.74l-1,.4c-.76.29-1.28.2-1.56-.28s-.16-1.21.71-1.73a1.88,1.88,0,0,1,2.38.18l.94-1.23a3.2,3.2,0,0,0-4-.09c-1.69,1-2.13,2.57-1.41,3.76s1.88,1.41,3.37.82l1-.4c1-.37,1.52-.27,1.84.25s.14,1.3-.85,1.9a2.13,2.13,0,0,1-2.79-.34Zm9.92-3.33-2-3.22a9,9,0,0,0-2.44-2.59l.38-.51,6.19,5L140,69.4l-1.58-7.8.63-.1a9.1,9.1,0,0,0,1.17,3.36l2,3.22,1.34-.8-4.36-7.19L137,61.39l.92,4.57a7.37,7.37,0,0,0,1,2.35l-.52.31a7.51,7.51,0,0,0-1.59-2l-3.64-2.92L131,65l4.35,7.18Zm7.82-4.74,1.44-.88-.45-2.15,3-1.83,1.69,1.4,1.48-.9-7-5.55-1.78,1.07Zm.26-6.51a5.8,5.8,0,0,0-.8-1.9l.51-.3a5.8,5.8,0,0,0,1.3,1.57l1.65,1.38-2.21,1.34Zm3.46-4,2.5-1.51,3.66,6,1.33-.81-3.66-6,2.54-1.54-.7-1.14L147.51,55Zm7.85-1.46A4.12,4.12,0,0,0,162,56.26a3.72,3.72,0,0,0,1.92-4.19l-1.5.25a2.37,2.37,0,0,1-1.12,2.79c-1.37.83-2.83.34-3.82-1.29s-.7-3.09.67-3.92a2.37,2.37,0,0,1,2.92.28L162,49a3.76,3.76,0,0,0-4.56-.21A4.14,4.14,0,0,0,156.05,54.68Zm11.67-2.12-1.9-3.13,3.36-2,1.9,3.13,1.33-.81-4.35-7.18-1.34.81,1.77,2.9-3.37,2-1.76-2.9-1.33.81,4.35,7.18ZM175,45.47a3.46,3.46,0,0,0,4.41.22c1.9-1.15,2.28-2.69,1.51-4s-2-1.38-3.62-.74l-1,.4c-.75.29-1.27.2-1.56-.28s-.16-1.21.71-1.73a1.88,1.88,0,0,1,2.38.18l.95-1.23a3.21,3.21,0,0,0-4-.09c-1.69,1-2.13,2.57-1.41,3.76s1.88,1.41,3.38.82l1-.4c1-.37,1.52-.27,1.84.25s.14,1.3-.84,1.9a2.13,2.13,0,0,1-2.79-.34Zm9.91-3.33-2-3.22a9,9,0,0,0-2.44-2.59l.38-.51,6.19,5,1.12-.68-1.57-7.8.62-.1a9.29,9.29,0,0,0,1.17,3.36l2,3.22,1.33-.8-4.36-7.19-2.13,1.3.92,4.57a7.86,7.86,0,0,0,1,2.35l-.51.31a7.71,7.71,0,0,0-1.59-2l-3.65-2.92-2.19,1.33L183.55,43Zm7.82-4.74,1.44-.88-.45-2.15,3-1.83,1.7,1.4,1.47-.9-7-5.55-1.78,1.07Zm.27-6.51a6,6,0,0,0-.8-1.9l.5-.3A5.81,5.81,0,0,0,194,30.26l1.64,1.38L193.42,33Zm3.46-4,2.49-1.51,3.66,6,1.33-.81-3.66-6L202.8,23l-.7-1.14-6.36,3.85Zm7.84-1.46A4.12,4.12,0,0,0,210.2,27a3.72,3.72,0,0,0,1.93-4.19l-1.51.25a2.38,2.38,0,0,1-1.11,2.79c-1.38.83-2.84.34-3.83-1.29s-.69-3.09.67-3.92a2.37,2.37,0,0,1,2.92.28l1-1.21a3.76,3.76,0,0,0-4.56-.21A4.16,4.16,0,0,0,204.28,25.42ZM216,23.3l-1.9-3.13,3.37-2,1.89,3.13,1.34-.81-4.36-7.18-1.33.81,1.76,2.9-3.37,2-1.76-2.9-1.33.81,4.35,7.18Z"/><path id="SMATCH_SMATCH_SMATCH_SMATCH_2" data-name="SMATCH SMATCH SMATCH SMATCH_2" class="cls-2" d="M86.3,225.59a3.47,3.47,0,0,0,4.41.22c1.89-1.16,2.28-2.69,1.51-4s-2-1.37-3.62-.73l-1,.4c-.76.29-1.28.19-1.56-.28s-.16-1.21.71-1.74a1.88,1.88,0,0,1,2.38.19l1-1.23a3.2,3.2,0,0,0-4-.09c-1.69,1-2.13,2.57-1.41,3.76s1.88,1.4,3.37.82l1-.4c1-.37,1.52-.28,1.84.25s.14,1.3-.84,1.9a2.16,2.16,0,0,1-2.8-.35Zm9.91-3.33-2-3.22a8.9,8.9,0,0,0-2.44-2.59l.38-.51,6.19,5,1.12-.68-1.58-7.8.63-.1a9.1,9.1,0,0,0,1.17,3.36l2,3.22,1.34-.81L98.65,211l-2.13,1.3.92,4.57a7.61,7.61,0,0,0,1,2.35l-.52.31a7.32,7.32,0,0,0-1.59-2l-3.64-2.93-2.19,1.34,4.35,7.18Zm7.82-4.75,1.44-.87-.45-2.15,3-1.83,1.69,1.4,1.48-.9-7-5.56-1.78,1.08Zm.27-6.5a6,6,0,0,0-.81-1.9l.51-.31a6.05,6.05,0,0,0,1.3,1.58l1.65,1.37-2.21,1.35Zm3.46-4,2.49-1.51,3.66,6,1.33-.81-3.66-6,2.54-1.54-.7-1.15-6.36,3.86Zm7.84-1.46a4.12,4.12,0,0,0,5.92,1.57,3.72,3.72,0,0,0,1.93-4.18l-1.51.25a2.36,2.36,0,0,1-1.12,2.78c-1.37.84-2.83.35-3.82-1.28s-.7-3.09.67-3.92a2.37,2.37,0,0,1,2.92.28l1-1.21a3.74,3.74,0,0,0-4.56-.21A4.15,4.15,0,0,0,115.6,205.54Zm11.67-2.12-1.9-3.13,3.36-2,1.9,3.13,1.34-.81-4.36-7.19-1.34.81L128,197.1l-3.37,2-1.76-2.9-1.33.8,4.35,7.19Zm7.26-7.09a3.47,3.47,0,0,0,4.41.22c1.9-1.16,2.28-2.69,1.51-4s-2-1.37-3.62-.73l-1,.4c-.75.29-1.27.19-1.56-.28s-.16-1.21.72-1.74a1.87,1.87,0,0,1,2.37.19l.95-1.23a3.2,3.2,0,0,0-4-.09c-1.69,1-2.13,2.57-1.41,3.76s1.88,1.4,3.38.82l1-.4c1-.37,1.52-.28,1.84.25s.14,1.3-.84,1.9a2.14,2.14,0,0,1-2.79-.35Zm9.91-3.33-2-3.22a8.9,8.9,0,0,0-2.44-2.59l.38-.51,6.19,5,1.12-.68-1.57-7.8.62-.1a9.29,9.29,0,0,0,1.17,3.36l2,3.22,1.33-.81-4.36-7.18-2.13,1.3.92,4.57a7.86,7.86,0,0,0,1,2.35l-.51.31a7.71,7.71,0,0,0-1.59-2l-3.65-2.93-2.19,1.34,4.36,7.18Zm7.82-4.75,1.44-.87-.45-2.15,3-1.83,1.69,1.4,1.48-.9-7-5.56-1.77,1.08Zm.27-6.5a5.93,5.93,0,0,0-.8-1.9l.5-.31a5.87,5.87,0,0,0,1.31,1.58l1.64,1.37L153,183.84Zm3.46-4,2.49-1.51,3.66,6,1.33-.81-3.65-6,2.53-1.54-.7-1.15-6.36,3.86Zm7.84-1.46a4.12,4.12,0,0,0,5.92,1.57,3.71,3.71,0,0,0,1.93-4.18l-1.5.25a2.38,2.38,0,0,1-1.12,2.78c-1.38.84-2.84.35-3.83-1.28s-.69-3.09.67-3.92a2.37,2.37,0,0,1,2.92.28l1-1.21a3.74,3.74,0,0,0-4.56-.21A4.16,4.16,0,0,0,163.83,176.28Zm11.67-2.12L173.6,171l3.37-2,1.89,3.13,1.34-.81-4.36-7.19-1.33.81,1.76,2.91-3.37,2-1.76-2.9-1.33.8,4.36,7.19Zm7.26-7.09a3.47,3.47,0,0,0,4.41.22c1.9-1.16,2.29-2.69,1.51-4s-2-1.37-3.62-.73l-1,.4c-.75.29-1.27.19-1.56-.28s-.15-1.21.72-1.74a1.87,1.87,0,0,1,2.37.19l.95-1.23a3.19,3.19,0,0,0-3.95-.09c-1.7,1-2.14,2.57-1.41,3.76s1.87,1.4,3.37.82l1-.4c.95-.37,1.51-.28,1.83.25s.15,1.3-.84,1.9a2.14,2.14,0,0,1-2.79-.35Zm9.91-3.33-1.95-3.22a9,9,0,0,0-2.44-2.59l.37-.51,6.2,5,1.12-.68-1.58-7.8.63-.1a9.1,9.1,0,0,0,1.17,3.36l1.95,3.22,1.33-.81-4.35-7.18-2.14,1.3.93,4.57a7.55,7.55,0,0,0,1,2.35l-.51.31a7.71,7.71,0,0,0-1.59-2L189.18,156l-2.2,1.34,4.36,7.18ZM200.5,159l1.43-.87-.45-2.15,3-1.83,1.69,1.4,1.48-.9-7-5.56-1.77,1.08Zm.26-6.5a5.93,5.93,0,0,0-.8-1.9l.5-.31a6.06,6.06,0,0,0,1.31,1.58l1.65,1.37-2.22,1.35Zm3.46-4,2.49-1.51,3.66,6,1.34-.81-3.66-6,2.53-1.54-.7-1.15-6.36,3.86Zm7.84-1.46a4.13,4.13,0,0,0,5.93,1.57,3.7,3.7,0,0,0,1.92-4.18l-1.5.25a2.37,2.37,0,0,1-1.12,2.78c-1.38.84-2.84.35-3.83-1.28s-.69-3.09.67-3.92a2.36,2.36,0,0,1,2.92.28l1-1.21a3.74,3.74,0,0,0-4.56-.21A4.16,4.16,0,0,0,212.06,147Zm11.67-2.12-1.9-3.13,3.37-2,1.9,3.13,1.33-.81-4.36-7.19-1.33.81,1.76,2.91-3.36,2-1.77-2.9-1.33.8,4.36,7.19Zm7.26-7.09a3.47,3.47,0,0,0,4.41.22c1.9-1.16,2.29-2.69,1.52-4s-2-1.37-3.62-.73l-1,.4c-.75.29-1.27.19-1.55-.28s-.16-1.21.71-1.74a1.86,1.86,0,0,1,2.37.19l1-1.23a3.19,3.19,0,0,0-4-.09c-1.69,1-2.13,2.57-1.41,3.76s1.88,1.4,3.37.82l1-.4c1-.37,1.52-.28,1.83.25s.15,1.3-.84,1.9a2.14,2.14,0,0,1-2.79-.35Zm9.91-3.33-2-3.22a8.9,8.9,0,0,0-2.44-2.59l.38-.51,6.19,5,1.12-.68-1.58-7.8.63-.1a9.1,9.1,0,0,0,1.17,3.36l2,3.22,1.34-.81-4.36-7.18-2.13,1.3.92,4.57a7.37,7.37,0,0,0,1,2.35l-.52.31a7.51,7.51,0,0,0-1.59-2l-3.64-2.93-2.2,1.34,4.36,7.18Zm7.83-4.75,1.44-.87-.46-2.15,3-1.83,1.69,1.4,1.48-.9-7-5.56-1.78,1.08Zm.26-6.5a5.93,5.93,0,0,0-.8-1.9l.5-.31A6.06,6.06,0,0,0,250,122.6l1.65,1.37-2.22,1.35Zm3.46-4,2.5-1.51,3.66,6,1.33-.81-3.66-6,2.53-1.54-.69-1.15-6.36,3.86Zm7.85-1.46a4.12,4.12,0,0,0,5.92,1.57,3.7,3.7,0,0,0,1.92-4.18l-1.5.25a2.37,2.37,0,0,1-1.12,2.78c-1.37.84-2.83.35-3.82-1.28s-.7-3.09.67-3.92a2.37,2.37,0,0,1,2.92.28l1-1.21a3.74,3.74,0,0,0-4.56-.21A4.14,4.14,0,0,0,260.3,117.76ZM272,115.64l-1.89-3.13,3.36-2,1.9,3.13,1.33-.81-4.35-7.19-1.34.81,1.76,2.91-3.36,2-1.76-2.9-1.34.8,4.36,7.19Z"/></g></g></g></svg>