<svg xmlns="http://www.w3.org/2000/svg" viewBox="0 0 327.9 290.71"><defs><style>.cls-1{fill:#f04c36;}.cls-2{fill:#fff;}</style></defs><g id="Calque_2" data-name="Calque 2"><g id="Calque_1-2" data-name="Calque 1"><g id="TRY"><path id="Star_1" data-name="Star 1" class="cls-1" d="M233.35,32.84l5,60.58,69.87,15.23-37,42.42,56.69,47.42-64.76,8L285,268l-67.82-29.39-21.32,52.07-45-55.61L94.55,257.87l-5-60.58L19.73,182.05l37-42.42L0,92.22l64.76-8L42.89,22.68l67.82,29.39L132,0l45,55.61Z"/><path id="TRY_2" data-name="TRY 2" class="cls-2" d="M100.37,75.87l21.82,13L89.73,143.34l6,3.58L128.2,92.46l22.94,13.67,3.38-5.67L103.75,70.2Zm28.72,90.93,6,3.58,15.46-25.94L165,153c8.59,5.12,10.56,10.6,7.57,19l-6.11,17.08,6.61,3.94,6-17.94c2.77-8.36,2.07-13.43-5.08-18l1.79-3c8,3.46,16.7,2.85,21.82-5.74,5.53-9.28,2.34-20.72-9-27.48l-23.71-14.13Zm38.48-50.88L184.49,126c7.64,4.55,10.84,11.7,6.33,19.25s-12.19,8.34-20.09,3.63l-16.83-10Zm47.7,67.32L199.91,209l6,3.58,15.51-26L263,165.11l-7.3-4.36L231.9,173.7c-4.87,2.69-7.71,5.31-9.89,8.78l-3-1.79c2-3.49,2.78-7.2,2.79-12.89l-.38-27.47-7.22-4.3Z"/></g></g></g></svg>